# xmcd
# 
# Track frame offsets:
#     150
#     19599
#     39074
# 
# Disc length: 738
# 
# Revision: 6
# Processed by: cddbd v1.5.2PL0 Copyright (c) Steve Scherf et al.
# Submitted via: BonkEnc v1.0.6
# 
DISCID=1202e003
DTITLE=嵐 - Happiness
DYEAR=2007
DGENRE=J-Pop
TTITLE0=Happiness
TTITLE1=Still...
TTITLE2=Snowfiake
EXTD=YEAR: 2007
EXTT0=
EXTT1=
EXTT2=
PLAYORDER=
